<?xml version="1.0" encoding="UTF-8"?>
<svg width="871px" height="150px" viewBox="0 0 871 150" version="1.1" xmlns="http://www.w3.org/2000/svg" xmlns:xlink="http://www.w3.org/1999/xlink">
    <!-- Generator: Sketch 53.2 (72643) - https://sketchapp.com -->
    <title>orseng-logo-black_name</title>
    <desc>Created with Sketch.</desc>
    <g id="orseng-logo-black_name" stroke="none" stroke-width="1" fill="none" fill-rule="evenodd">
        <g id="Group-15" transform="translate(5.000000, 5.000000)" fill="#000000">
            <path d="M65.1045,20.4966 C56.5695,20.9076 48.7155,23.4806 41.9775,27.7736 L42.0585,27.8656 C37.8035,30.5606 34.0005,33.9056 30.7885,37.7616 L30.7535,37.7236 C30.1455,38.4756 29.5605,39.2506 28.9985,40.0446 C23.1235,48.0236 19.6515,57.8816 19.6515,68.5506 C19.6515,95.1306 41.1995,116.6786 67.7795,116.6786 C94.3585,116.6786 115.9065,95.1306 115.9065,68.5506 C115.9065,41.9716 94.3585,20.4236 67.7795,20.4236 C66.8815,20.4236 65.9905,20.4486 65.1045,20.4966 M17.6725,22.8786 L0.0005,2.9146 L20.0665,2.9146 L29.2635,13.2906 C39.7815,6.0846 52.8795,1.9566 66.9255,1.8346 C104.6845,1.5046 134.6715,30.4316 134.9955,67.4606 C135.1495,85.1536 128.5405,101.2656 117.3335,113.2206 L134.7505,132.9366 L114.7135,132.9366 L105.7435,122.8076 C95.2255,130.0136 82.1265,134.1416 68.0815,134.2646 C30.3225,134.5936 0.3345,105.6676 0.0115,68.6386 C-0.1425,50.9446 6.4665,34.8336 17.6725,22.8786" id="Fill-1"></path>
            <path d="M286.0547,131.2437 L262.1587,131.2437 L217.0627,77.7957 L217.0627,131.2437 L197.5437,131.2437 L197.5437,3.5517 L228.1907,3.5517 C256.4647,3.5517 273.9767,20.5167 273.9767,43.5007 C273.9767,62.6547 261.3897,77.0657 241.6887,81.2617 L286.0547,131.2437 Z M217.0627,20.6987 L217.0627,68.6747 L226.7307,68.6747 C243.6957,68.6747 253.9107,58.6407 253.9107,44.4127 C253.9107,30.5497 243.6957,20.6987 226.7307,20.6987 L217.0627,20.6987 Z" id="Fill-3"></path>
            <polygon id="Fill-5" points="487.4268 113.3667 538.5168 113.3667 538.5168 131.2437 467.9078 131.2437 467.9078 3.5517 520.4588 3.5517 536.1448 21.4287 487.4268 21.4287 487.4268 56.8167 506.7988 56.8167 506.7988 74.6937 487.4268 74.6937"></polygon>
            <g id="Group-9" transform="translate(594.000000, 0.882000)">
                <polygon id="Fill-7" points="101.6973 4.3768 101.6973 139.0008 20.0063 46.8798 20.0063 133.5278 0.4873 133.5278 0.4873 0.3638 82.1783 92.3008 82.1783 4.3768"></polygon>
            </g>
            <g id="Group-12" transform="translate(751.000000, 0.882000)">
                <path d="M92.4238,58.9193 L110.8488,80.0923 L110.8488,121.8533 C99.1738,128.6023 83.3038,132.7983 67.6148,132.7983 C30.2208,132.7983 0.6688,103.6113 0.6688,66.5803 C0.6688,29.5503 30.9498,0.3633 69.2578,0.3633 C82.2088,0.3633 91.6948,3.3293 102.0928,8.8023 L102.0928,28.4553 C92.6068,22.4363 81.1138,18.7873 69.4398,18.7873 C42.0768,18.7873 20.9168,39.7663 20.9168,66.5803 C20.9168,93.3963 41.5298,114.3733 68.1628,114.3733 C77.2838,114.3733 85.1278,112.9143 92.4238,109.8143 L92.4238,76.2483 L92.4238,58.9193 Z" id="Fill-10"></path>
            </g>
            <path d="M397.5,30.0005 L397.5,10.0005 C397.5,10.0005 385.5,0.0005 369.5,0.0005 C353.5,0.0005 337,10.5005 336.5,32.0005 C336.128,47.9965 348.5,61.0005 358.5,70.0005 C368.5,79.0005 382.5,88.0005 382.5,101.0005 C382.5,109.0745 374.5,115.4295 366.3,115.4295 C356.5,115.4295 348.5,112.0005 338.5,104.0005 L338.5,127.0005 C338.5,127.0005 352.5,135.0005 368.5,135.0005 C384.5,135.0005 402.5,124.0005 402.5,103.0005 C402.5,80.0005 386,69.5005 378,61.5005 C370,53.5005 356,45.0005 356,32.5005 C356,23.8125 363.5,18.4095 371.63,18.4095 C380.562,18.4095 387.5,22.0005 397.5,30.0005" id="Fill-13"></path>
        </g>
    </g>
</svg>