<?xml version="1.0" encoding="UTF-8"?>
<svg width="408px" height="240px" viewBox="0 0 408 240" version="1.1" xmlns="http://www.w3.org/2000/svg" xmlns:xlink="http://www.w3.org/1999/xlink">
    <!-- Generator: Sketch 53.2 (72643) - https://sketchapp.com -->
    <title>orseng-logo-black_square</title>
    <desc>Created with Sketch.</desc>
    <g id="orseng-logo-black_square" stroke="none" stroke-width="1" fill="none" fill-rule="evenodd">
        <g id="Group" transform="translate(5.000000, 5.000000)" fill="#000000">
            <path d="M99.8339567,57.9802142 L91.4989267,57.9802142 L91.4989267,0 L321.050253,0 L321.050253,57.9802142 L312.715223,57.9802142 L312.715223,8.33503002 L99.8339567,8.33503002 L99.8339567,57.9802142 Z M99.8339567,170.724914 L99.8339567,221.216296 L312.715223,221.216296 L312.715223,170.724914 L321.050253,170.724914 L321.050253,229.551326 L91.4989267,229.551326 L91.4989267,170.724914 L99.8339567,170.724914 Z" id="Combined-Shape" fill-rule="nonzero"></path>
            <g id="Group-15" transform="translate(0.000000, 82.007773)">
                <path d="M30.0827349,9.47083202 C26.1389807,9.66074215 22.5098952,10.8496443 19.396478,12.8333041 L19.4339056,12.8758144 C17.4678043,14.1210888 15.7105581,15.6667078 14.2263942,17.4484437 L14.2102218,17.4308851 C13.9292842,17.7783605 13.6589742,18.1364636 13.3992917,18.5033459 C10.6846396,22.19019 9.08033798,26.7452607 9.08033798,31.6750689 C9.08033798,43.9568481 19.0369888,53.9134989 31.3187679,53.9134989 C43.6000851,53.9134989 53.5567358,43.9568481 53.5567358,31.6750689 C53.5567358,19.3937518 43.6000851,9.43710103 31.3187679,9.43710103 C30.9038305,9.43710103 30.4921275,9.44865274 30.0827349,9.47083202 M8.16590454,10.5714791 L0.000231034221,1.34674468 L9.27209639,1.34674468 L13.5217398,6.14116683 C18.3817757,2.81150164 24.4339482,0.904083113 30.9241615,0.847710763 C48.3714038,0.695228177 62.2274502,14.061482 62.3771603,31.1714143 C62.4483189,39.3467913 59.3945085,46.791638 54.2161075,52.3156662 L62.2639536,61.4258076 L53.0054882,61.4258076 L48.8607343,56.7455164 C44.0006984,60.0751816 37.9480639,61.9826001 31.4583126,62.0394345 C14.0110703,62.191455 0.154561894,48.8256633 0.00531378708,31.7157309 C-0.065844753,23.5398919 2.98796558,16.0955073 8.16590454,10.5714791" id="Fill-1"></path>
                <path d="M132.176849,60.6435719 L121.135262,60.6435719 L100.297824,35.9469379 L100.297824,60.6435719 L91.2787096,60.6435719 L91.2787096,1.64112848 L105.439721,1.64112848 C118.504244,1.64112848 126.595987,9.4801196 126.595987,20.1003007 C126.595987,28.9507596 120.779931,35.6096279 111.676721,37.5484671 L132.176849,60.6435719 Z M100.297824,9.56421606 L100.297824,31.7324116 L104.765101,31.7324116 C112.604092,31.7324116 117.324121,27.0960169 117.324121,20.5217071 C117.324121,14.1160523 112.604092,9.56421606 104.765101,9.56421606 L100.297824,9.56421606 Z" id="Fill-3"></path>
                <polygon id="Fill-5" points="225.224542 52.3831744 248.831619 52.3831744 248.831619 60.6435719 216.205428 60.6435719 216.205428 1.64112848 240.487587 1.64112848 247.735592 9.90152602 225.224542 9.90152602 225.224542 26.253204 234.175732 26.253204 234.175732 34.5136016 225.224542 34.5136016"></polygon>
                <g id="Group-9" transform="translate(274.468654, 0.407544)">
                    <polygon id="Fill-7" points="46.9911129 2.02238116 46.9911129 64.2278831 9.24427987 21.6616761 9.24427987 61.6989825 0.225165952 61.6989825 0.225165952 0.168100499 37.971999 42.6492868 37.971999 2.02238116"></polygon>
                </g>
                <g id="Group-12" transform="translate(347.089263, 0.407544)">
                    <path d="M42.6302581,27.2247491 L51.1438692,37.0081243 L51.1438692,56.3045645 C45.7492201,59.4230644 38.4161939,61.3619035 31.1668022,61.3619035 C13.8882148,61.3619035 0.233168257,47.8755119 0.233168257,30.7646555 C0.233168257,13.6542611 14.2250627,0.167869465 31.9259806,0.167869465 C37.910229,0.167869465 42.2934102,1.53836446 47.0979979,4.06726504 L47.0979979,13.1482961 C42.7148167,10.3671062 37.4042641,8.68101844 32.0100771,8.68101844 C19.3664983,8.68101844 9.58913007,18.3747523 9.58913007,30.7646555 C9.58913007,43.1554828 19.1137469,52.8482925 31.4200157,52.8482925 C35.6345419,52.8482925 39.2590068,52.1741347 42.6302581,50.7417225 L42.6302581,35.2319332 L42.6302581,27.2247491 Z" id="Fill-10"></path>
                </g>
                <path d="M183.672206,13.8622843 L183.672206,4.62091545 C183.672206,4.62091545 178.127384,0.000231034221 170.734289,0.000231034221 C163.341194,0.000231034221 155.717065,4.85194967 155.486031,14.7864212 C155.314141,22.177668 161.030852,28.186406 165.651536,32.345022 C170.272221,36.5036379 176.741179,40.6622539 176.741179,46.6691437 C176.741179,50.3998843 173.044631,53.3363292 169.25567,53.3363292 C164.727399,53.3363292 161.030852,51.7518965 156.410168,48.055349 L156.410168,58.6829231 C156.410168,58.6829231 162.879126,62.3794707 170.272221,62.3794707 C177.665316,62.3794707 185.982548,57.2967178 185.982548,47.5932805 C185.982548,36.9657064 178.358419,32.1139877 174.661871,28.4174402 C170.965323,24.7208927 164.496365,20.7933109 164.496365,15.0174554 C164.496365,11.0030048 167.961879,8.50644898 171.718495,8.50644898 C175.84569,8.50644898 179.051521,10.1657368 183.672206,13.8622843" id="Fill-13"></path>
            </g>
        </g>
    </g>
</svg>