<?xml version="1.0" encoding="UTF-8"?>
<svg width="388px" height="118px" viewBox="0 0 388 118" version="1.1" xmlns="http://www.w3.org/2000/svg" xmlns:xlink="http://www.w3.org/1999/xlink">
    <!-- Generator: Sketch 53.2 (72643) - https://sketchapp.com -->
    <title>orseng-logo-black_full</title>
    <desc>Created with Sketch.</desc>
    <g id="orseng-logo-black_full" stroke="none" stroke-width="1" fill="none" fill-rule="evenodd">
        <g id="Group" transform="translate(5.000000, 5.000000)" fill="#000000">
            <path d="M3.96934029,106.653446 L3.96934029,88.6614458 L6.75134029,88.2454458 L6.75134029,106.653446 L3.96934029,106.653446 Z M33.6113401,88.2454458 L33.6113401,107.433446 L20.7673401,94.3034458 L20.7673401,106.653446 L17.9853401,106.653446 L17.9853401,87.6734458 L30.8293401,100.777446 L30.8293401,88.6614458 L33.6113401,88.2454458 Z M55.9733399,91.0794458 L50.9553399,91.0794458 L50.9553399,106.653446 L48.1733399,106.653446 L48.1733399,91.0794458 L43.1293399,91.0794458 L43.5713399,88.4534458 L55.5313399,88.4534458 L55.9733399,91.0794458 Z M68.2473397,104.105446 L76.0993397,104.105446 L75.6573397,106.653446 L65.4653397,106.653446 L65.4653397,88.4534458 L75.3193397,88.4534458 L75.7613397,91.0014458 L68.2473397,91.0014458 L68.2473397,96.0454458 L74.4353397,96.0454458 L74.4353397,98.5934458 L68.2473397,98.5934458 L68.2473397,104.105446 Z M98.0453394,106.653446 L94.6393394,106.653446 L89.1533394,99.0354458 L89.1533394,106.653446 L86.3713394,106.653446 L86.3713394,88.4534458 L90.7393394,88.4534458 C94.7693394,88.4534458 97.2653394,90.8714458 97.2653394,94.1474458 C97.2653394,96.8774458 95.4713394,98.9314458 92.6633394,99.5294458 L98.0453394,106.653446 Z M89.1533394,90.8974458 L89.1533394,97.7354458 L90.5313394,97.7354458 C92.9493394,97.7354458 94.4053394,96.3054458 94.4053394,94.2774458 C94.4053394,92.3014458 92.9493394,90.8974458 90.5313394,90.8974458 L89.1533394,90.8974458 Z M108.161339,106.653446 L108.161339,88.6614458 L110.943339,88.2454458 L110.943339,106.653446 L108.161339,106.653446 Z M138.063339,91.0534458 C139.675339,92.7434458 140.637339,95.0314458 140.637339,97.5534458 C140.637339,102.831446 136.399339,106.991446 131.017339,106.991446 C129.015339,106.991446 127.143339,106.419446 125.635339,105.405446 L124.049339,107.225446 L122.437339,105.821446 L123.971339,104.053446 C122.359339,102.363446 121.397339,100.075446 121.397339,97.5534458 C121.397339,92.2754458 125.635339,88.1154458 131.017339,88.1154458 C133.019339,88.1154458 134.891339,88.6874458 136.399339,89.7014458 L137.985339,87.8814458 L139.597339,89.2854458 L138.063339,91.0534458 Z M131.017339,104.339446 C134.787339,104.339446 137.751339,101.349446 137.751339,97.5534458 C137.751339,95.8894458 137.179339,94.3554458 136.217339,93.1854458 L127.429339,103.325446 C128.469339,103.975446 129.691339,104.339446 131.017339,104.339446 Z M124.283339,97.5534458 C124.283339,99.2174458 124.855339,100.751446 125.817339,101.921446 L134.605339,91.7814458 C133.565339,91.1314458 132.343339,90.7674458 131.017339,90.7674458 C127.247339,90.7674458 124.283339,93.7574458 124.283339,97.5534458 Z M162.635339,106.653446 L159.229339,106.653446 L153.743339,99.0354458 L153.743339,106.653446 L150.961339,106.653446 L150.961339,88.4534458 L155.329339,88.4534458 C159.359339,88.4534458 161.855339,90.8714458 161.855339,94.1474458 C161.855339,96.8774458 160.061339,98.9314458 157.253339,99.5294458 L162.635339,106.653446 Z M153.743339,90.8974458 L153.743339,97.7354458 L155.121339,97.7354458 C157.539339,97.7354458 158.995339,96.3054458 158.995339,94.2774458 C158.995339,92.3014458 157.539339,90.8974458 155.121339,90.8974458 L153.743339,90.8974458 Z M185.075339,106.653446 L182.839339,101.427446 L176.131339,101.427446 L173.895339,106.653446 L170.879339,106.653446 L179.485339,87.8034458 L188.065339,106.653446 L185.075339,106.653446 Z M177.171339,98.9834458 L181.773339,98.9834458 L179.485339,93.6274458 L177.171339,98.9834458 Z M209.075338,106.653446 L205.669338,106.653446 L200.183338,99.0354458 L200.183338,106.653446 L197.401338,106.653446 L197.401338,88.4534458 L201.769338,88.4534458 C205.799338,88.4534458 208.295338,90.8714458 208.295338,94.1474458 C208.295338,96.8774458 206.501338,98.9314458 203.693338,99.5294458 L209.075338,106.653446 Z M200.183338,90.8974458 L200.183338,97.7354458 L201.561338,97.7354458 C203.979338,97.7354458 205.435338,96.3054458 205.435338,94.2774458 C205.435338,92.3014458 203.979338,90.8974458 201.561338,90.8974458 L200.183338,90.8974458 Z M231.697338,106.653446 L228.317338,106.653446 L221.843338,97.7354458 L221.843338,106.653446 L219.061338,106.653446 L219.061338,88.6614458 L221.843338,88.2454458 L221.843338,96.8774458 L228.083338,88.4534458 L231.463338,88.4534458 L224.651338,97.2674458 L231.697338,106.653446 Z M241.605338,106.653446 L241.605338,88.6614458 L244.387338,88.2454458 L244.387338,106.653446 L241.605338,106.653446 Z M266.879338,91.0794458 L261.861338,91.0794458 L261.861338,106.653446 L259.079338,106.653446 L259.079338,91.0794458 L254.035338,91.0794458 L254.477338,88.4534458 L266.437338,88.4534458 L266.879338,91.0794458 Z M279.153338,104.105446 L287.005338,104.105446 L286.563338,106.653446 L276.371338,106.653446 L276.371338,88.4534458 L286.225338,88.4534458 L286.667338,91.0014458 L279.153338,91.0014458 L279.153338,96.0454458 L285.341338,96.0454458 L285.341338,98.5934458 L279.153338,98.5934458 L279.153338,104.105446 Z M309.913337,106.653446 L306.533337,106.653446 L300.059337,97.7354458 L300.059337,106.653446 L297.277337,106.653446 L297.277337,88.6614458 L300.059337,88.2454458 L300.059337,96.8774458 L306.299337,88.4534458 L309.679337,88.4534458 L302.867337,97.2674458 L309.913337,106.653446 Z M330.949337,91.0794458 L325.931337,91.0794458 L325.931337,106.653446 L323.149337,106.653446 L323.149337,91.0794458 L318.105337,91.0794458 L318.547337,88.4534458 L330.507337,88.4534458 L330.949337,91.0794458 Z M347.149337,106.965446 C342.963337,106.965446 340.207337,104.053446 340.207337,99.7114458 L340.207337,88.6614458 L342.989337,88.2454458 L342.989337,99.5034458 C342.989337,102.441446 344.627337,104.339446 347.149337,104.339446 C349.697337,104.339446 351.335337,102.441446 351.335337,99.5034458 L351.335337,88.6614458 L354.117337,88.2454458 L354.117337,99.7114458 C354.117337,104.053446 351.335337,106.965446 347.149337,106.965446 Z M376.635337,106.653446 L373.229337,106.653446 L367.743337,99.0354458 L367.743337,106.653446 L364.961337,106.653446 L364.961337,88.4534458 L369.329337,88.4534458 C373.359337,88.4534458 375.855337,90.8714458 375.855337,94.1474458 C375.855337,96.8774458 374.061337,98.9314458 371.253337,99.5294458 L376.635337,106.653446 Z M367.743337,90.8974458 L367.743337,97.7354458 L369.121337,97.7354458 C371.539337,97.7354458 372.995337,96.3054458 372.995337,94.2774458 C372.995337,92.3014458 371.539337,90.8974458 369.121337,90.8974458 L367.743337,90.8974458 Z" id="INTERIØRARKITEKTUR" fill-rule="nonzero"></path>
            <g id="Group-15">
                <path d="M28.5635597,8.99255592 C24.8189647,9.17287561 21.3731476,10.3017383 18.4169578,12.1852235 L18.4524952,12.225587 C16.5856819,13.4079752 14.9171764,14.8755405 13.5079627,16.567299 L13.492607,16.5506271 C13.2258567,16.8805551 12.9691973,17.2205739 12.7226288,17.5689287 C10.1450663,21.0695876 8.62178179,25.3946276 8.62178179,30.075481 C8.62178179,41.7370315 18.0756227,51.1908724 29.7371732,51.1908724 C41.398285,51.1908724 50.8521259,41.7370315 50.8521259,30.075481 C50.8521259,18.4143692 41.398285,8.96052834 29.7371732,8.96052834 C29.34319,8.96052834 28.952278,8.97149669 28.5635597,8.99255592 M7.75352715,10.0376204 L0.000219367015,1.2787342 L8.80385642,1.2787342 L12.8388933,5.8310385 C17.4534978,2.66952108 23.2000361,0.858427003 29.3624943,0.804901452 C45.9286526,0.660119222 59.0849699,13.3513785 59.2271198,29.5972609 C59.2946848,37.3597821 56.3950916,44.4286648 51.4781993,49.6737301 L59.1196299,58.3238103 L50.3287162,58.3238103 L46.3932719,53.8798733 C41.7786674,57.0413907 36.0316903,58.8524848 29.8696709,58.9064491 C13.3035126,59.0507926 0.146756533,46.359972 0.00504544135,30.1140896 C-0.0625195993,22.3511297 2.83707361,15.2826857 7.75352715,10.0376204" id="Fill-1"></path>
                <path d="M125.501931,57.5810774 L115.017943,57.5810774 L95.2327932,34.131621 L95.2327932,57.5810774 L86.6691436,57.5810774 L86.6691436,1.55825166 L100.115025,1.55825166 C112.519791,1.55825166 120.202902,9.00137448 120.202902,19.0852374 C120.202902,27.488749 114.680557,33.8113452 106.037057,35.6522731 L125.501931,57.5810774 Z M95.2327932,9.08122407 L95.2327932,30.1299279 L99.4744738,30.1299279 C106.917597,30.1299279 111.399265,25.7276706 111.399265,19.4853629 C111.399265,13.403193 106.917597,9.08122407 99.4744738,9.08122407 L95.2327932,9.08122407 Z" id="Fill-3"></path>
                <polygon id="Fill-5" points="213.850724 49.7378292 236.265646 49.7378292 236.265646 57.5810774 205.287075 57.5810774 205.287075 1.55825166 228.342987 1.55825166 235.224969 9.40149991 213.850724 9.40149991 213.850724 24.9274198 222.34988 24.9274198 222.34988 32.770668 213.850724 32.770668"></polygon>
                <g id="Group-9" transform="translate(260.608014, 0.386963)">
                    <polygon id="Fill-7" points="44.6180663 1.9202511 44.6180663 60.9843812 8.77744463 20.5677636 8.77744463 58.5831898 0.213795093 58.5831898 0.213795093 0.15961144 36.0544168 40.495502 36.0544168 1.9202511"></polygon>
                </g>
                <g id="Group-12" transform="translate(329.611789, 0.386963)">
                    <path d="M40.4269343,25.8499019 L48.5106088,35.1392176 L48.5106088,53.4611894 C43.388389,56.4222054 36.42568,58.2631334 29.5423818,58.2631334 C13.1363614,58.2631334 0.17089338,45.4578032 0.17089338,29.2110434 C0.17089338,12.9647222 13.4561985,0.159392073 30.2632218,0.159392073 C35.9452662,0.159392073 40.1070972,1.46067721 44.6690537,3.86186855 L44.6690537,12.4843084 C40.5072226,9.84356832 35.4648524,8.24262785 30.3430714,8.24262785 C18.3379921,8.24262785 9.05438002,17.4468291 9.05438002,29.2110434 C9.05438002,40.9761351 18.0980046,50.1794589 29.782808,50.1794589 C33.7845011,50.1794589 37.2259308,49.5393459 40.4269343,48.1792704 L40.4269343,33.452724 L40.4269343,25.8499019 Z" id="Fill-10"></path>
                </g>
                <path d="M174.396777,13.1622403 L174.396777,4.38755967 C174.396777,4.38755967 169.131969,0.000219367015 162.112224,0.000219367015 C155.09248,0.000219367015 147.853368,4.60692668 147.634001,14.0397083 C147.470792,21.0576979 152.89881,26.7629952 157.28615,30.7116015 C161.67349,34.6602078 167.815767,38.608814 167.815767,44.3123564 C167.815767,47.854695 164.305894,50.6428497 160.708275,50.6428497 C156.408682,50.6428497 152.89881,49.1384307 148.511469,45.6285585 L148.511469,55.7194412 C148.511469,55.7194412 154.653746,59.2293134 161.67349,59.2293134 C168.693235,59.2293134 176.590447,54.4032391 176.590447,45.1898245 C176.590447,35.0989418 169.351336,30.4922345 165.841463,26.9823622 C162.331591,23.47249 156.189315,19.7432507 156.189315,14.2590753 C156.189315,10.4473541 159.47982,8.07687413 163.046728,8.07687413 C166.9655,8.07687413 170.009437,9.65236803 174.396777,13.1622403" id="Fill-13"></path>
            </g>
        </g>
    </g>
</svg>